<svg id="Layer_1" enable-background="new 0 0 512 512" height="512" viewBox="0 0 512 512" width="512" xmlns="http://www.w3.org/2000/svg"><g><path d="m222.8 143.533v-16.066c0-26.072-21.095-47.134-47.133-47.134-26.076 0-47.134 21.105-47.134 47.134v16.066c0 26.285 21.337 47.134 47.134 47.134 25.832 0 47.133-20.876 47.133-47.134zm-64.267 0v-16.066c0-9.457 7.646-17.134 17.134-17.134 9.495 0 17.133 7.685 17.133 17.134v16.066c0 9.55-7.758 17.134-17.133 17.134-9.326 0-17.134-7.54-17.134-17.134z"/><path d="m336.333 224.934c-26.075 0-47.133 21.102-47.133 47.133v16.067c0 26.277 21.327 47.133 47.133 47.133 25.773 0 47.134-20.83 47.134-47.133v-16.067c0-26.075-21.098-47.133-47.134-47.133zm17.134 63.2c0 9.568-7.782 17.133-17.134 17.133-9.345 0-17.133-7.555-17.133-17.133v-16.067c0-9.455 7.644-17.133 17.133-17.133 9.495 0 17.134 7.683 17.134 17.133z"/><path d="m345.052 83.127c-6.74-4.814-16.109-3.253-20.925 3.487l-160.666 224.934c-4.815 6.741-3.254 16.109 3.487 20.925 6.948 4.963 16.261 3.042 20.925-3.487l160.666-224.934c4.815-6.741 3.254-16.11-3.487-20.925z"/><path d="m432.733 0h-353.466c-43.851 0-79.267 35.487-79.267 79.267v257.06c0 43.852 35.487 79.267 79.267 79.267h81.4v81.4c0 5.682 3.21 10.876 8.292 13.416.175.087 8.046 4.332 15.708-1.416l124.533-93.4h123.533c43.854 0 79.267-35.496 79.267-79.267v-257.06c0-43.851-35.487-79.267-79.267-79.267zm49.267 336.326c0 27.156-21.957 49.267-49.267 49.267h-128.533c-3.245 0-6.403 1.053-9 3l-104.533 78.4v-66.4c0-8.284-6.716-15-15-15h-96.4c-27.266 0-49.267-22.066-49.267-49.267v-257.059c0-27.217 22.016-49.267 49.267-49.267h353.467c27.216 0 49.266 22.016 49.266 49.267z"/></g></svg>